{
    "asset" : {
        "generator" : "Khronos glTF Blender I/O v1.7.33",
        "version" : "2.0"
    },
    "scene" : 0,
    "scenes" : [
        {
            "name" : "Scene",
            "nodes" : [
                0,
                1
            ]
        }
    ],
    "nodes" : [
        {
            "mesh" : 0,
            "name" : "bus_stop",
            "rotation" : [
                0.7071068286895752,
                0,
                0,
                0.7071067094802856
            ]
        },
        {
            "mesh" : 1,
            "name" : "sign",
            "rotation" : [
                0.7071068286895752,
                0,
                0,
                0.7071067094802856
            ]
        }
    ],
    "materials" : [
        {
            "doubleSided" : true,
            "name" : "glass",
            "pbrMetallicRoughness" : {
                "baseColorTexture" : {
                    "index" : 0
                },
                "metallicFactor" : 0,
                "roughnessFactor" : 0.5
            }
        },
        {
            "doubleSided" : true,
            "name" : "metall",
            "pbrMetallicRoughness" : {
                "baseColorTexture" : {
                    "index" : 1
                },
                "metallicFactor" : 0,
                "roughnessFactor" : 0.5
            }
        },
        {
            "doubleSided" : true,
            "name" : "reklama",
            "pbrMetallicRoughness" : {
                "baseColorFactor" : [
                    0.800000011920929,
                    0.800000011920929,
                    0.800000011920929,
                    1
                ],
                "metallicFactor" : 0,
                "roughnessFactor" : 0.5
            }
        },
        {
            "doubleSided" : true,
            "name" : "glass2",
            "pbrMetallicRoughness" : {
                "baseColorFactor" : [
                    0.800000011920929,
                    0.800000011920929,
                    0.800000011920929,
                    1
                ],
                "metallicFactor" : 0,
                "roughnessFactor" : 0.5
            }
        },
        {
            "doubleSided" : true,
            "name" : "sofa",
            "pbrMetallicRoughness" : {
                "baseColorFactor" : [
                    0.800000011920929,
                    0.800000011920929,
                    0.800000011920929,
                    1
                ],
                "metallicFactor" : 0,
                "roughnessFactor" : 0.5
            }
        },
        {
            "doubleSided" : true,
            "name" : "bus_stop_sign",
            "pbrMetallicRoughness" : {
                "baseColorFactor" : [
                    0.800000011920929,
                    0.800000011920929,
                    0.800000011920929,
                    1
                ],
                "metallicFactor" : 0,
                "roughnessFactor" : 0.5
            }
        }
    ],
    "meshes" : [
        {
            "name" : "bus_stop",
            "primitives" : [
                {
                    "attributes" : {
                        "POSITION" : 0,
                        "NORMAL" : 1,
                        "TEXCOORD_0" : 2
                    },
                    "indices" : 3,
                    "material" : 0
                },
                {
                    "attributes" : {
                        "POSITION" : 4,
                        "NORMAL" : 5,
                        "TEXCOORD_0" : 6
                    },
                    "indices" : 7,
                    "material" : 1
                },
                {
                    "attributes" : {
                        "POSITION" : 8,
                        "NORMAL" : 9,
                        "TEXCOORD_0" : 10
                    },
                    "indices" : 11,
                    "material" : 2
                },
                {
                    "attributes" : {
                        "POSITION" : 12,
                        "NORMAL" : 13,
                        "TEXCOORD_0" : 14
                    },
                    "indices" : 15,
                    "material" : 3
                },
                {
                    "attributes" : {
                        "POSITION" : 16,
                        "NORMAL" : 17,
                        "TEXCOORD_0" : 18
                    },
                    "indices" : 19,
                    "material" : 4
                }
            ]
        },
        {
            "name" : "sign",
            "primitives" : [
                {
                    "attributes" : {
                        "POSITION" : 20,
                        "NORMAL" : 21,
                        "TEXCOORD_0" : 22
                    },
                    "indices" : 23,
                    "material" : 1
                },
                {
                    "attributes" : {
                        "POSITION" : 24,
                        "NORMAL" : 25,
                        "TEXCOORD_0" : 26
                    },
                    "indices" : 27,
                    "material" : 5
                }
            ]
        }
    ],
    "textures" : [
        {
            "sampler" : 0,
            "source" : 0
        },
        {
            "sampler" : 0,
            "source" : 1
        }
    ],
    "images" : [
        {
            "mimeType" : "image/jpeg",
            "name" : "premium_photo-1707931342773-6eb567d4fd21",
            "uri" : "premium_photo-1707931342773-6eb567d4fd21.jpg"
        },
        {
            "mimeType" : "image/png",
            "name" : "baby-blue-color-solid-background-1920x1080",
            "uri" : "baby-blue-color-solid-background-1920x1080.png"
        }
    ],
    "accessors" : [
        {
            "bufferView" : 0,
            "componentType" : 5126,
            "count" : 112,
            "max" : [
                3.0999999046325684,
                1.635686993598938,
                -0.27000001072883606
            ],
            "min" : [
                -0.10000000149011612,
                -0.135686993598938,
                -2.7516729831695557
            ],
            "type" : "VEC3"
        },
        {
            "bufferView" : 1,
            "componentType" : 5126,
            "count" : 112,
            "type" : "VEC3"
        },
        {
            "bufferView" : 2,
            "componentType" : 5126,
            "count" : 112,
            "type" : "VEC2"
        },
        {
            "bufferView" : 3,
            "componentType" : 5123,
            "count" : 186,
            "type" : "SCALAR"
        },
        {
            "bufferView" : 4,
            "componentType" : 5126,
            "count" : 1696,
            "max" : [
                3.0199999809265137,
                1.6356860399246216,
                0
            ],
            "min" : [
                -0.05000000074505806,
                -0.135686993598938,
                -2.7516729831695557
            ],
            "type" : "VEC3"
        },
        {
            "bufferView" : 5,
            "componentType" : 5126,
            "count" : 1696,
            "type" : "VEC3"
        },
        {
            "bufferView" : 6,
            "componentType" : 5126,
            "count" : 1696,
            "type" : "VEC2"
        },
        {
            "bufferView" : 7,
            "componentType" : 5123,
            "count" : 2784,
            "type" : "SCALAR"
        },
        {
            "bufferView" : 8,
            "componentType" : 5126,
            "count" : 8,
            "max" : [
                0.019999999552965164,
                1.4299999475479126,
                -0.3700000047683716
            ],
            "min" : [
                -0.019999999552965164,
                0.07000000029802322,
                -2.2699999809265137
            ],
            "type" : "VEC3"
        },
        {
            "bufferView" : 9,
            "componentType" : 5126,
            "count" : 8,
            "type" : "VEC3"
        },
        {
            "bufferView" : 10,
            "componentType" : 5126,
            "count" : 8,
            "type" : "VEC2"
        },
        {
            "bufferView" : 11,
            "componentType" : 5123,
            "count" : 12,
            "type" : "SCALAR"
        },
        {
            "bufferView" : 12,
            "componentType" : 5126,
            "count" : 56,
            "max" : [
                3.0999999046325684,
                1.6417759656906128,
                -2.4030439853668213
            ],
            "min" : [
                -0.10000000149011612,
                -0.14177699387073517,
                -2.761615037918091
            ],
            "type" : "VEC3"
        },
        {
            "bufferView" : 13,
            "componentType" : 5126,
            "count" : 56,
            "type" : "VEC3"
        },
        {
            "bufferView" : 14,
            "componentType" : 5126,
            "count" : 56,
            "type" : "VEC2"
        },
        {
            "bufferView" : 15,
            "componentType" : 5123,
            "count" : 138,
            "type" : "SCALAR"
        },
        {
            "bufferView" : 16,
            "componentType" : 5126,
            "count" : 144,
            "max" : [
                2.25,
                0.3700000047683716,
                -0.44999998807907104
            ],
            "min" : [
                0.75,
                0.019999999552965164,
                -0.49000000953674316
            ],
            "type" : "VEC3"
        },
        {
            "bufferView" : 17,
            "componentType" : 5126,
            "count" : 144,
            "type" : "VEC3"
        },
        {
            "bufferView" : 18,
            "componentType" : 5126,
            "count" : 144,
            "type" : "VEC2"
        },
        {
            "bufferView" : 19,
            "componentType" : 5123,
            "count" : 564,
            "type" : "SCALAR"
        },
        {
            "bufferView" : 20,
            "componentType" : 5126,
            "count" : 412,
            "max" : [
                -0.6519259810447693,
                2.6035149097442627,
                0
            ],
            "min" : [
                -0.7019259929656982,
                2.1035149097442627,
                -2.700000047683716
            ],
            "type" : "VEC3"
        },
        {
            "bufferView" : 21,
            "componentType" : 5126,
            "count" : 412,
            "type" : "VEC3"
        },
        {
            "bufferView" : 22,
            "componentType" : 5126,
            "count" : 412,
            "type" : "VEC2"
        },
        {
            "bufferView" : 23,
            "componentType" : 5123,
            "count" : 912,
            "type" : "SCALAR"
        },
        {
            "bufferView" : 24,
            "componentType" : 5126,
            "count" : 32,
            "max" : [
                -0.6519259810447693,
                2.6035149097442627,
                -1.899999976158142
            ],
            "min" : [
                -0.7019259929656982,
                2.1035149097442627,
                -2.700000047683716
            ],
            "type" : "VEC3"
        },
        {
            "bufferView" : 25,
            "componentType" : 5126,
            "count" : 32,
            "type" : "VEC3"
        },
        {
            "bufferView" : 26,
            "componentType" : 5126,
            "count" : 32,
            "type" : "VEC2"
        },
        {
            "bufferView" : 27,
            "componentType" : 5123,
            "count" : 84,
            "type" : "SCALAR"
        }
    ],
    "bufferViews" : [
        {
            "buffer" : 0,
            "byteLength" : 1344,
            "byteOffset" : 0
        },
        {
            "buffer" : 0,
            "byteLength" : 1344,
            "byteOffset" : 1344
        },
        {
            "buffer" : 0,
            "byteLength" : 896,
            "byteOffset" : 2688
        },
        {
            "buffer" : 0,
            "byteLength" : 372,
            "byteOffset" : 3584
        },
        {
            "buffer" : 0,
            "byteLength" : 20352,
            "byteOffset" : 3956
        },
        {
            "buffer" : 0,
            "byteLength" : 20352,
            "byteOffset" : 24308
        },
        {
            "buffer" : 0,
            "byteLength" : 13568,
            "byteOffset" : 44660
        },
        {
            "buffer" : 0,
            "byteLength" : 5568,
            "byteOffset" : 58228
        },
        {
            "buffer" : 0,
            "byteLength" : 96,
            "byteOffset" : 63796
        },
        {
            "buffer" : 0,
            "byteLength" : 96,
            "byteOffset" : 63892
        },
        {
            "buffer" : 0,
            "byteLength" : 64,
            "byteOffset" : 63988
        },
        {
            "buffer" : 0,
            "byteLength" : 24,
            "byteOffset" : 64052
        },
        {
            "buffer" : 0,
            "byteLength" : 672,
            "byteOffset" : 64076
        },
        {
            "buffer" : 0,
            "byteLength" : 672,
            "byteOffset" : 64748
        },
        {
            "buffer" : 0,
            "byteLength" : 448,
            "byteOffset" : 65420
        },
        {
            "buffer" : 0,
            "byteLength" : 276,
            "byteOffset" : 65868
        },
        {
            "buffer" : 0,
            "byteLength" : 1728,
            "byteOffset" : 66144
        },
        {
            "buffer" : 0,
            "byteLength" : 1728,
            "byteOffset" : 67872
        },
        {
            "buffer" : 0,
            "byteLength" : 1152,
            "byteOffset" : 69600
        },
        {
            "buffer" : 0,
            "byteLength" : 1128,
            "byteOffset" : 70752
        },
        {
            "buffer" : 0,
            "byteLength" : 4944,
            "byteOffset" : 71880
        },
        {
            "buffer" : 0,
            "byteLength" : 4944,
            "byteOffset" : 76824
        },
        {
            "buffer" : 0,
            "byteLength" : 3296,
            "byteOffset" : 81768
        },
        {
            "buffer" : 0,
            "byteLength" : 1824,
            "byteOffset" : 85064
        },
        {
            "buffer" : 0,
            "byteLength" : 384,
            "byteOffset" : 86888
        },
        {
            "buffer" : 0,
            "byteLength" : 384,
            "byteOffset" : 87272
        },
        {
            "buffer" : 0,
            "byteLength" : 256,
            "byteOffset" : 87656
        },
        {
            "buffer" : 0,
            "byteLength" : 168,
            "byteOffset" : 87912
        }
    ],
    "samplers" : [
        {
            "magFilter" : 9729,
            "minFilter" : 9987
        }
    ],
    "buffers" : [
        {
            "byteLength" : 88080,
            "uri" : "bus.bin"
        }
    ]
}
