{
	"asset":{
		"generator":"Khronos glTF Blender I/O v4.2.70",
		"version":"2.0"
	},
	"scene":0,
	"scenes":[
		{
			"name":"Scene",
			"nodes":[
				18
			]
		}
	],
	"nodes":[
		{
			"mesh":0,
			"name":"houses",
			"translation":[
				-1.5,
				1.5,
				-1.5
			]
		},
		{
			"mesh":1,
			"name":"lampPost",
			"translation":[
				1,
				0,
				-1
			]
		},
		{
			"mesh":2,
			"name":"trafficLight",
			"rotation":[
				0,
				-0.7071068286895752,
				0,
				0.7071068286895752
			],
			"translation":[
				2.5,
				0,
				-22.518980026245117
			]
		},
		{
			"mesh":3,
			"name":"pedestrianLight",
			"translation":[
				3.5,
				0,
				-1
			]
		},
		{
			"mesh":4,
			"name":"chargingStation",
			"translation":[
				0,
				0.25,
				-3.8619394302368164
			]
		},
		{
			"mesh":5,
			"name":"puddle",
			"translation":[
				1.5,
				0.009999999776482582,
				-17.5
			]
		},
		{
			"mesh":6,
			"name":"sewageHole",
			"translation":[
				1.5,
				0.009999999776482582,
				-6.5
			]
		},
		{
			"camera":0,
			"name":"Camera",
			"rotation":[
				-0.09062839299440384,
				-0.8937963247299194,
				-0.20997300744056702,
				0.3857797682285309
			],
			"translation":[
				-5.828983783721924,
				5.416375637054443,
				-4.341971397399902
			]
		},
		{
			"children":[
				7
			],
			"mesh":7,
			"name":"Human 2",
			"rotation":[
				0,
				-1,
				0,
				1.6292068494294654e-07
			],
			"translation":[
				1.5299062728881836,
				-0.45806631445884705,
				-0.4945426285266876
			]
		},
		{
			"children":[
				8
			],
			"name":"Player"
		},
		{
			"children":[
				9
			],
			"name":"Low Poly Human 2"
		},
		{
			"mesh":8,
			"name":"curbs",
			"translation":[
				3.075000047683716,
				-0.02500000223517418,
				-0.07500000298023224
			]
		},
		{
			"mesh":9,
			"name":"WalkLane",
			"scale":[
				3,
				1,
				1
			],
			"translation":[
				1.5,
				0,
				-0.5
			]
		},
		{
			"mesh":10,
			"name":"CarLane",
			"translation":[
				3.6500000953674316,
				-0.10000000149011612,
				-0.5
			]
		},
		{
			"children":[
				11,
				12,
				13
			],
			"name":"Lanes"
		},
		{
			"mesh":11,
			"name":"busStop1",
			"translation":[
				2.4930858612060547,
				1.101145625114441,
				-10.139755249023438
			]
		},
		{
			"mesh":11,
			"name":"busStop2",
			"translation":[
				2.4930858612060547,
				1.101145625114441,
				-25.821285247802734
			]
		},
		{
			"children":[
				15,
				16
			],
			"name":"busStops"
		},
		{
			"children":[
				0,
				1,
				2,
				3,
				4,
				5,
				6,
				10,
				14,
				17
			],
			"name":"Scene Collection"
		}
	],
	"cameras":[
		{
			"name":"Camera",
			"perspective":{
				"aspectRatio":1.7777777777777777,
				"yfov":0.39959652046304894,
				"zfar":100,
				"znear":0.10000000149011612
			},
			"type":"perspective"
		}
	],
	"materials":[
		{
			"doubleSided":true,
			"name":"houseMAT",
			"pbrMetallicRoughness":{
				"baseColorTexture":{
					"index":0
				},
				"metallicFactor":0,
				"roughnessFactor":0.5
			}
		},
		{
			"doubleSided":true,
			"name":"lampPostMAT",
			"pbrMetallicRoughness":{
				"baseColorTexture":{
					"index":1
				},
				"metallicFactor":0,
				"roughnessFactor":0.5
			}
		},
		{
			"doubleSided":true,
			"name":"chargingStationMAT",
			"pbrMetallicRoughness":{
				"baseColorTexture":{
					"index":2
				},
				"metallicFactor":0,
				"roughnessFactor":0.5
			}
		},
		{
			"doubleSided":true,
			"name":"puddleMAT",
			"pbrMetallicRoughness":{
				"baseColorTexture":{
					"index":3
				},
				"metallicFactor":0,
				"roughnessFactor":0.5
			}
		},
		{
			"doubleSided":true,
			"name":"sewageMAt",
			"pbrMetallicRoughness":{
				"baseColorTexture":{
					"index":4
				},
				"metallicFactor":0,
				"roughnessFactor":0.5
			}
		},
		{
			"doubleSided":true,
			"name":"playerMAT",
			"pbrMetallicRoughness":{
				"baseColorTexture":{
					"index":5
				},
				"metallicFactor":0,
				"roughnessFactor":0.5
			}
		},
		{
			"doubleSided":true,
			"name":"CurbMAT",
			"pbrMetallicRoughness":{
				"baseColorTexture":{
					"index":6
				},
				"metallicFactor":0,
				"roughnessFactor":0.5
			}
		},
		{
			"doubleSided":true,
			"name":"LanesMAT",
			"pbrMetallicRoughness":{
				"baseColorTexture":{
					"index":7
				},
				"metallicFactor":0,
				"roughnessFactor":0.5
			}
		},
		{
			"doubleSided":true,
			"name":"busStopMAT",
			"pbrMetallicRoughness":{
				"baseColorTexture":{
					"index":8
				},
				"metallicFactor":0,
				"roughnessFactor":0.5
			}
		}
	],
	"meshes":[
		{
			"name":"Cube.002",
			"primitives":[
				{
					"attributes":{
						"POSITION":0,
						"NORMAL":1,
						"TEXCOORD_0":2
					},
					"indices":3,
					"material":0
				}
			]
		},
		{
			"name":"Cylinder",
			"primitives":[
				{
					"attributes":{
						"POSITION":4,
						"NORMAL":5,
						"TEXCOORD_0":6
					},
					"indices":7,
					"material":1
				}
			]
		},
		{
			"name":"Cylinder.002",
			"primitives":[
				{
					"attributes":{
						"POSITION":8,
						"NORMAL":9,
						"TEXCOORD_0":10
					},
					"indices":11,
					"material":1
				}
			]
		},
		{
			"name":"Cylinder.003",
			"primitives":[
				{
					"attributes":{
						"POSITION":12,
						"NORMAL":13,
						"TEXCOORD_0":14
					},
					"indices":15,
					"material":1
				}
			]
		},
		{
			"name":"Cube.004",
			"primitives":[
				{
					"attributes":{
						"POSITION":16,
						"NORMAL":17,
						"TEXCOORD_0":18
					},
					"indices":19,
					"material":2
				}
			]
		},
		{
			"name":"Plane",
			"primitives":[
				{
					"attributes":{
						"POSITION":20,
						"NORMAL":21,
						"TEXCOORD_0":22
					},
					"indices":23,
					"material":3
				}
			]
		},
		{
			"name":"Plane.003",
			"primitives":[
				{
					"attributes":{
						"POSITION":24,
						"NORMAL":25,
						"TEXCOORD_0":26
					},
					"indices":23,
					"material":4
				}
			]
		},
		{
			"name":"Human",
			"primitives":[
				{
					"attributes":{
						"POSITION":27,
						"NORMAL":28,
						"TEXCOORD_0":29
					},
					"indices":30,
					"material":5
				}
			]
		},
		{
			"name":"Cube.001",
			"primitives":[
				{
					"attributes":{
						"POSITION":31,
						"NORMAL":32,
						"TEXCOORD_0":33
					},
					"indices":34,
					"material":6
				}
			]
		},
		{
			"name":"Plane.004",
			"primitives":[
				{
					"attributes":{
						"POSITION":35,
						"NORMAL":36,
						"TEXCOORD_0":37
					},
					"indices":38,
					"material":7
				}
			]
		},
		{
			"name":"Plane.005",
			"primitives":[
				{
					"attributes":{
						"POSITION":39,
						"NORMAL":40,
						"TEXCOORD_0":41
					},
					"indices":38,
					"material":7
				}
			]
		},
		{
			"name":"Cube.003",
			"primitives":[
				{
					"attributes":{
						"POSITION":42,
						"NORMAL":43,
						"TEXCOORD_0":44
					},
					"indices":45,
					"material":8
				}
			]
		}
	],
	"textures":[
		{
			"sampler":0,
			"source":0
		},
		{
			"sampler":0,
			"source":1
		},
		{
			"sampler":0,
			"source":2
		},
		{
			"sampler":0,
			"source":3
		},
		{
			"sampler":0,
			"source":4
		},
		{
			"sampler":0,
			"source":5
		},
		{
			"sampler":0,
			"source":6
		},
		{
			"sampler":0,
			"source":7
		},
		{
			"sampler":0,
			"source":8
		}
	],
	"images":[
		{
			"mimeType":"image/png",
			"name":"houseTEX",
			"uri":"houseTEX.png"
		},
		{
			"mimeType":"image/png",
			"name":"lamppostTEX",
			"uri":"lamppostTEX.png"
		},
		{
			"mimeType":"image/png",
			"name":"ChargingStationTEX",
			"uri":"ChargingStationTEX.png"
		},
		{
			"mimeType":"image/png",
			"name":"puddleTEX",
			"uri":"puddleTEX.png"
		},
		{
			"mimeType":"image/png",
			"name":"sewageHoleTEX",
			"uri":"sewageHoleTEX.png"
		},
		{
			"mimeType":"image/png",
			"name":"playerTEX",
			"uri":"playerTEX.png"
		},
		{
			"mimeType":"image/png",
			"name":"CurbsTEX",
			"uri":"CurbsTEX.png"
		},
		{
			"mimeType":"image/png",
			"name":"WalkLanesTEX",
			"uri":"WalkLanesTEX.png"
		},
		{
			"mimeType":"image/png",
			"name":"busStopTEX",
			"uri":"busStopTEX.png"
		}
	],
	"accessors":[
		{
			"bufferView":0,
			"componentType":5126,
			"count":1071,
			"max":[
				1.8726873397827148,
				2.1509385108947754,
				1.8726873397827148
			],
			"min":[
				-1.8726873397827148,
				-1.5,
				-31.87268829345703
			],
			"type":"VEC3"
		},
		{
			"bufferView":1,
			"componentType":5126,
			"count":1071,
			"type":"VEC3"
		},
		{
			"bufferView":2,
			"componentType":5126,
			"count":1071,
			"type":"VEC2"
		},
		{
			"bufferView":3,
			"componentType":5123,
			"count":2142,
			"type":"SCALAR"
		},
		{
			"bufferView":4,
			"componentType":5126,
			"count":5378,
			"max":[
				0.7328411340713501,
				2.168680191040039,
				0.20790237188339233
			],
			"min":[
				-0.10825320333242416,
				0,
				-56.20790100097656
			],
			"type":"VEC3"
		},
		{
			"bufferView":5,
			"componentType":5126,
			"count":5378,
			"type":"VEC3"
		},
		{
			"bufferView":6,
			"componentType":5126,
			"count":5378,
			"type":"VEC2"
		},
		{
			"bufferView":7,
			"componentType":5123,
			"count":8100,
			"type":"SCALAR"
		},
		{
			"bufferView":8,
			"componentType":5126,
			"count":604,
			"max":[
				0.15533234179019928,
				2.168484926223755,
				0.14812129735946655
			],
			"min":[
				-0.12033297121524811,
				0,
				-0.14812126755714417
			],
			"type":"VEC3"
		},
		{
			"bufferView":9,
			"componentType":5126,
			"count":604,
			"type":"VEC3"
		},
		{
			"bufferView":10,
			"componentType":5126,
			"count":604,
			"type":"VEC2"
		},
		{
			"bufferView":11,
			"componentType":5123,
			"count":972,
			"type":"SCALAR"
		},
		{
			"bufferView":12,
			"componentType":5126,
			"count":288,
			"max":[
				0.12033233046531677,
				2.168484926223755,
				0.14812129735946655
			],
			"min":[
				-0.12033297121524811,
				0,
				-0.14812126755714417
			],
			"type":"VEC3"
		},
		{
			"bufferView":13,
			"componentType":5126,
			"count":288,
			"type":"VEC3"
		},
		{
			"bufferView":14,
			"componentType":5126,
			"count":288,
			"type":"VEC2"
		},
		{
			"bufferView":15,
			"componentType":5123,
			"count":456,
			"type":"SCALAR"
		},
		{
			"bufferView":16,
			"componentType":5126,
			"count":24,
			"max":[
				0.25,
				0.25,
				0.4401014745235443
			],
			"min":[
				-0.25,
				-0.25,
				-0.4401021897792816
			],
			"type":"VEC3"
		},
		{
			"bufferView":17,
			"componentType":5126,
			"count":24,
			"type":"VEC3"
		},
		{
			"bufferView":18,
			"componentType":5126,
			"count":24,
			"type":"VEC2"
		},
		{
			"bufferView":19,
			"componentType":5123,
			"count":36,
			"type":"SCALAR"
		},
		{
			"bufferView":20,
			"componentType":5126,
			"count":4,
			"max":[
				0.5,
				0,
				0.5
			],
			"min":[
				-0.5,
				0,
				-0.5
			],
			"type":"VEC3"
		},
		{
			"bufferView":21,
			"componentType":5126,
			"count":4,
			"type":"VEC3"
		},
		{
			"bufferView":22,
			"componentType":5126,
			"count":4,
			"type":"VEC2"
		},
		{
			"bufferView":23,
			"componentType":5123,
			"count":6,
			"type":"SCALAR"
		},
		{
			"bufferView":24,
			"componentType":5126,
			"count":4,
			"max":[
				0.5,
				0,
				0.5
			],
			"min":[
				-0.5,
				0,
				-0.5
			],
			"type":"VEC3"
		},
		{
			"bufferView":25,
			"componentType":5126,
			"count":4,
			"type":"VEC3"
		},
		{
			"bufferView":26,
			"componentType":5126,
			"count":4,
			"type":"VEC2"
		},
		{
			"bufferView":27,
			"componentType":5126,
			"count":12837,
			"max":[
				0.2412828505039215,
				1.669059157371521,
				0.18184441328048706
			],
			"min":[
				-0.23113009333610535,
				0.44817638397216797,
				-0.07803016901016235
			],
			"type":"VEC3"
		},
		{
			"bufferView":28,
			"componentType":5126,
			"count":12837,
			"type":"VEC3"
		},
		{
			"bufferView":29,
			"componentType":5126,
			"count":12837,
			"type":"VEC2"
		},
		{
			"bufferView":30,
			"componentType":5123,
			"count":13170,
			"type":"SCALAR"
		},
		{
			"bufferView":31,
			"componentType":5126,
			"count":2058,
			"max":[
				0.07500000298023224,
				0.055000003427267075,
				0.07500000298023224
			],
			"min":[
				-0.07500000298023224,
				-0.07500000298023224,
				-49.92499923706055
			],
			"type":"VEC3"
		},
		{
			"bufferView":32,
			"componentType":5126,
			"count":2058,
			"type":"VEC3"
		},
		{
			"bufferView":33,
			"componentType":5126,
			"count":2058,
			"type":"VEC2"
		},
		{
			"bufferView":34,
			"componentType":5123,
			"count":3000,
			"type":"SCALAR"
		},
		{
			"bufferView":35,
			"componentType":5126,
			"count":200,
			"max":[
				0.5,
				0,
				0.5
			],
			"min":[
				-0.5,
				0,
				-49.5
			],
			"type":"VEC3"
		},
		{
			"bufferView":36,
			"componentType":5126,
			"count":200,
			"type":"VEC3"
		},
		{
			"bufferView":37,
			"componentType":5126,
			"count":200,
			"type":"VEC2"
		},
		{
			"bufferView":38,
			"componentType":5123,
			"count":300,
			"type":"SCALAR"
		},
		{
			"bufferView":39,
			"componentType":5126,
			"count":200,
			"max":[
				1.5,
				0,
				0.5
			],
			"min":[
				-0.5,
				0,
				-49.5
			],
			"type":"VEC3"
		},
		{
			"bufferView":40,
			"componentType":5126,
			"count":200,
			"type":"VEC3"
		},
		{
			"bufferView":41,
			"componentType":5126,
			"count":200,
			"type":"VEC2"
		},
		{
			"bufferView":42,
			"componentType":5126,
			"count":64,
			"max":[
				0.49834898114204407,
				0.6330345869064331,
				1.0092259645462036
			],
			"min":[
				-0.49834904074668884,
				-1.1092808246612549,
				-0.9829667210578918
			],
			"type":"VEC3"
		},
		{
			"bufferView":43,
			"componentType":5126,
			"count":64,
			"type":"VEC3"
		},
		{
			"bufferView":44,
			"componentType":5126,
			"count":64,
			"type":"VEC2"
		},
		{
			"bufferView":45,
			"componentType":5123,
			"count":132,
			"type":"SCALAR"
		}
	],
	"bufferViews":[
		{
			"buffer":0,
			"byteLength":12852,
			"byteOffset":0,
			"target":34962
		},
		{
			"buffer":0,
			"byteLength":12852,
			"byteOffset":12852,
			"target":34962
		},
		{
			"buffer":0,
			"byteLength":8568,
			"byteOffset":25704,
			"target":34962
		},
		{
			"buffer":0,
			"byteLength":4284,
			"byteOffset":34272,
			"target":34963
		},
		{
			"buffer":0,
			"byteLength":64536,
			"byteOffset":38556,
			"target":34962
		},
		{
			"buffer":0,
			"byteLength":64536,
			"byteOffset":103092,
			"target":34962
		},
		{
			"buffer":0,
			"byteLength":43024,
			"byteOffset":167628,
			"target":34962
		},
		{
			"buffer":0,
			"byteLength":16200,
			"byteOffset":210652,
			"target":34963
		},
		{
			"buffer":0,
			"byteLength":7248,
			"byteOffset":226852,
			"target":34962
		},
		{
			"buffer":0,
			"byteLength":7248,
			"byteOffset":234100,
			"target":34962
		},
		{
			"buffer":0,
			"byteLength":4832,
			"byteOffset":241348,
			"target":34962
		},
		{
			"buffer":0,
			"byteLength":1944,
			"byteOffset":246180,
			"target":34963
		},
		{
			"buffer":0,
			"byteLength":3456,
			"byteOffset":248124,
			"target":34962
		},
		{
			"buffer":0,
			"byteLength":3456,
			"byteOffset":251580,
			"target":34962
		},
		{
			"buffer":0,
			"byteLength":2304,
			"byteOffset":255036,
			"target":34962
		},
		{
			"buffer":0,
			"byteLength":912,
			"byteOffset":257340,
			"target":34963
		},
		{
			"buffer":0,
			"byteLength":288,
			"byteOffset":258252,
			"target":34962
		},
		{
			"buffer":0,
			"byteLength":288,
			"byteOffset":258540,
			"target":34962
		},
		{
			"buffer":0,
			"byteLength":192,
			"byteOffset":258828,
			"target":34962
		},
		{
			"buffer":0,
			"byteLength":72,
			"byteOffset":259020,
			"target":34963
		},
		{
			"buffer":0,
			"byteLength":48,
			"byteOffset":259092,
			"target":34962
		},
		{
			"buffer":0,
			"byteLength":48,
			"byteOffset":259140,
			"target":34962
		},
		{
			"buffer":0,
			"byteLength":32,
			"byteOffset":259188,
			"target":34962
		},
		{
			"buffer":0,
			"byteLength":12,
			"byteOffset":259220,
			"target":34963
		},
		{
			"buffer":0,
			"byteLength":48,
			"byteOffset":259232,
			"target":34962
		},
		{
			"buffer":0,
			"byteLength":48,
			"byteOffset":259280,
			"target":34962
		},
		{
			"buffer":0,
			"byteLength":32,
			"byteOffset":259328,
			"target":34962
		},
		{
			"buffer":0,
			"byteLength":154044,
			"byteOffset":259360,
			"target":34962
		},
		{
			"buffer":0,
			"byteLength":154044,
			"byteOffset":413404,
			"target":34962
		},
		{
			"buffer":0,
			"byteLength":102696,
			"byteOffset":567448,
			"target":34962
		},
		{
			"buffer":0,
			"byteLength":26340,
			"byteOffset":670144,
			"target":34963
		},
		{
			"buffer":0,
			"byteLength":24696,
			"byteOffset":696484,
			"target":34962
		},
		{
			"buffer":0,
			"byteLength":24696,
			"byteOffset":721180,
			"target":34962
		},
		{
			"buffer":0,
			"byteLength":16464,
			"byteOffset":745876,
			"target":34962
		},
		{
			"buffer":0,
			"byteLength":6000,
			"byteOffset":762340,
			"target":34963
		},
		{
			"buffer":0,
			"byteLength":2400,
			"byteOffset":768340,
			"target":34962
		},
		{
			"buffer":0,
			"byteLength":2400,
			"byteOffset":770740,
			"target":34962
		},
		{
			"buffer":0,
			"byteLength":1600,
			"byteOffset":773140,
			"target":34962
		},
		{
			"buffer":0,
			"byteLength":600,
			"byteOffset":774740,
			"target":34963
		},
		{
			"buffer":0,
			"byteLength":2400,
			"byteOffset":775340,
			"target":34962
		},
		{
			"buffer":0,
			"byteLength":2400,
			"byteOffset":777740,
			"target":34962
		},
		{
			"buffer":0,
			"byteLength":1600,
			"byteOffset":780140,
			"target":34962
		},
		{
			"buffer":0,
			"byteLength":768,
			"byteOffset":781740,
			"target":34962
		},
		{
			"buffer":0,
			"byteLength":768,
			"byteOffset":782508,
			"target":34962
		},
		{
			"buffer":0,
			"byteLength":512,
			"byteOffset":783276,
			"target":34962
		},
		{
			"buffer":0,
			"byteLength":264,
			"byteOffset":783788,
			"target":34963
		}
	],
	"samplers":[
		{
			"magFilter":9729,
			"minFilter":9987
		}
	],
	"buffers":[
		{
			"byteLength":784052,
			"uri":"environmentRIFTtriangles.bin"
		}
	]
}
