{
	"asset":{
		"generator":"Khronos glTF Blender I/O v4.2.70",
		"version":"2.0"
	},
	"scene":0,
	"scenes":[
		{
			"name":"Scene",
			"nodes":[
				17
			]
		}
	],
	"nodes":[
		{
			"mesh":0,
			"name":"Houses",
			"translation":[
				-1.5,
				1.5,
				-1.5
			]
		},
		{
			"mesh":1,
			"name":"lampPost",
			"translation":[
				1,
				0,
				-1
			]
		},
		{
			"mesh":2,
			"name":"trafficLight",
			"rotation":[
				0,
				-0.7071068286895752,
				0,
				0.7071068286895752
			],
			"translation":[
				2.5,
				0,
				-22.518980026245117
			]
		},
		{
			"mesh":3,
			"name":"chargingStation",
			"translation":[
				0,
				0.25,
				-3.8619394302368164
			]
		},
		{
			"mesh":4,
			"name":"puddle",
			"translation":[
				1.5,
				0.009999999776482582,
				-17.5
			]
		},
		{
			"mesh":5,
			"name":"sewageHole",
			"translation":[
				1.5,
				0.009999999776482582,
				-6.5
			]
		},
		{
			"camera":0,
			"name":"Camera",
			"rotation":[
				-0.09062839299440384,
				-0.8937963247299194,
				-0.20997300744056702,
				0.3857797682285309
			],
			"translation":[
				-5.828983783721924,
				5.416375637054443,
				-4.341971397399902
			]
		},
		{
			"children":[
				6
			],
			"mesh":6,
			"name":"Human 2",
			"rotation":[
				0,
				-1,
				0,
				1.6292068494294654e-07
			],
			"translation":[
				1.5299062728881836,
				-0.45806631445884705,
				-0.4945426285266876
			]
		},
		{
			"children":[
				7
			],
			"name":"Low Poly Human 2"
		},
		{
			"children":[
				8
			],
			"name":"Low Poly Human 2"
		},
		{
			"mesh":7,
			"name":"curbs",
			"translation":[
				3.075000047683716,
				-0.02500000223517418,
				-0.07500000298023224
			]
		},
		{
			"mesh":8,
			"name":"WalkLane",
			"scale":[
				3,
				1,
				1
			],
			"translation":[
				1.5,
				0,
				-0.5
			]
		},
		{
			"mesh":9,
			"name":"CarLane",
			"translation":[
				3.6500000953674316,
				-0.10000000149011612,
				-0.5
			]
		},
		{
			"children":[
				10,
				11,
				12
			],
			"name":"Lanes"
		},
		{
			"mesh":10,
			"name":"busStop1",
			"translation":[
				2.4930858612060547,
				1.101145625114441,
				-10.139755249023438
			]
		},
		{
			"mesh":10,
			"name":"busStop2",
			"translation":[
				2.4930858612060547,
				1.101145625114441,
				-25.821285247802734
			]
		},
		{
			"children":[
				14,
				15
			],
			"name":"busStops"
		},
		{
			"children":[
				0,
				1,
				2,
				3,
				4,
				5,
				9,
				13,
				16
			],
			"name":"Scene Collection"
		}
	],
	"cameras":[
		{
			"name":"Camera",
			"perspective":{
				"aspectRatio":1.7777777777777777,
				"yfov":0.39959652046304894,
				"zfar":100,
				"znear":0.10000000149011612
			},
			"type":"perspective"
		}
	],
	"materials":[
		{
			"doubleSided":true,
			"name":"Material.003",
			"pbrMetallicRoughness":{
				"metallicFactor":0,
				"roughnessFactor":0.5
			}
		},
		{
			"doubleSided":true,
			"name":"Material.001",
			"pbrMetallicRoughness":{
				"metallicFactor":0,
				"roughnessFactor":0.5
			}
		},
		{
			"doubleSided":true,
			"name":"Material.002",
			"pbrMetallicRoughness":{
				"baseColorFactor":[
					0.8002041578292847,
					0.0019047934329137206,
					0,
					1
				],
				"metallicFactor":0,
				"roughnessFactor":0.5
			}
		},
		{
			"doubleSided":true,
			"name":"yellow",
			"pbrMetallicRoughness":{
				"baseColorFactor":[
					1,
					1,
					0,
					1
				],
				"metallicFactor":0,
				"roughnessFactor":0.5
			}
		},
		{
			"doubleSided":true,
			"name":"green",
			"pbrMetallicRoughness":{
				"baseColorFactor":[
					0,
					1,
					0,
					1
				],
				"metallicFactor":0,
				"roughnessFactor":0.5
			}
		},
		{
			"doubleSided":true,
			"name":"Material.009",
			"pbrMetallicRoughness":{
				"metallicFactor":0,
				"roughnessFactor":0.5
			}
		},
		{
			"doubleSided":true,
			"name":"Material.010",
			"pbrMetallicRoughness":{
				"metallicFactor":0,
				"roughnessFactor":0.5
			}
		},
		{
			"doubleSided":true,
			"name":"Material.011",
			"pbrMetallicRoughness":{
				"metallicFactor":0,
				"roughnessFactor":0.5
			}
		},
		{
			"doubleSided":true,
			"name":"Material.006",
			"pbrMetallicRoughness":{
				"metallicFactor":0,
				"roughnessFactor":0.5
			}
		},
		{
			"doubleSided":true,
			"name":"Material.004",
			"pbrMetallicRoughness":{
				"metallicFactor":0,
				"roughnessFactor":0.5
			}
		},
		{
			"doubleSided":true,
			"name":"Material.005",
			"pbrMetallicRoughness":{
				"metallicFactor":0,
				"roughnessFactor":0.5
			}
		}
	],
	"meshes":[
		{
			"name":"Cube.002",
			"primitives":[
				{
					"attributes":{
						"POSITION":0,
						"NORMAL":1,
						"TEXCOORD_0":2
					},
					"indices":3,
					"material":0
				}
			]
		},
		{
			"name":"Cylinder",
			"primitives":[
				{
					"attributes":{
						"POSITION":4,
						"NORMAL":5,
						"TEXCOORD_0":6
					},
					"indices":7,
					"material":1
				}
			]
		},
		{
			"name":"Cylinder.002",
			"primitives":[
				{
					"attributes":{
						"POSITION":8,
						"NORMAL":9,
						"TEXCOORD_0":10
					},
					"indices":11,
					"material":1
				},
				{
					"attributes":{
						"POSITION":12,
						"NORMAL":13,
						"TEXCOORD_0":14
					},
					"indices":15,
					"material":2
				},
				{
					"attributes":{
						"POSITION":16,
						"NORMAL":17,
						"TEXCOORD_0":18
					},
					"indices":19,
					"material":3
				},
				{
					"attributes":{
						"POSITION":20,
						"NORMAL":21,
						"TEXCOORD_0":22
					},
					"indices":23,
					"material":4
				}
			]
		},
		{
			"name":"Cube.004",
			"primitives":[
				{
					"attributes":{
						"POSITION":24,
						"NORMAL":25,
						"TEXCOORD_0":26
					},
					"indices":27,
					"material":5
				}
			]
		},
		{
			"name":"Plane",
			"primitives":[
				{
					"attributes":{
						"POSITION":28,
						"NORMAL":29,
						"TEXCOORD_0":30
					},
					"indices":31,
					"material":6
				}
			]
		},
		{
			"name":"Plane.003",
			"primitives":[
				{
					"attributes":{
						"POSITION":32,
						"NORMAL":33,
						"TEXCOORD_0":34
					},
					"indices":31,
					"material":7
				}
			]
		},
		{
			"name":"Human",
			"primitives":[
				{
					"attributes":{
						"POSITION":35,
						"NORMAL":36,
						"TEXCOORD_0":37
					},
					"indices":38,
					"material":2
				}
			]
		},
		{
			"name":"Cube.001",
			"primitives":[
				{
					"attributes":{
						"POSITION":39,
						"NORMAL":40,
						"TEXCOORD_0":41
					},
					"indices":42,
					"material":8
				}
			]
		},
		{
			"name":"Plane.004",
			"primitives":[
				{
					"attributes":{
						"POSITION":43,
						"NORMAL":44,
						"TEXCOORD_0":45
					},
					"indices":46,
					"material":9
				}
			]
		},
		{
			"name":"Plane.005",
			"primitives":[
				{
					"attributes":{
						"POSITION":47,
						"NORMAL":48,
						"TEXCOORD_0":49
					},
					"indices":46,
					"material":9
				}
			]
		},
		{
			"name":"Cube.003",
			"primitives":[
				{
					"attributes":{
						"POSITION":50,
						"NORMAL":51,
						"TEXCOORD_0":52
					},
					"indices":53,
					"material":10
				}
			]
		}
	],
	"accessors":[
		{
			"bufferView":0,
			"componentType":5126,
			"count":1071,
			"max":[
				1.8726873397827148,
				2.1509385108947754,
				1.8726873397827148
			],
			"min":[
				-1.8726873397827148,
				-1.5,
				-31.87268829345703
			],
			"type":"VEC3"
		},
		{
			"bufferView":1,
			"componentType":5126,
			"count":1071,
			"type":"VEC3"
		},
		{
			"bufferView":2,
			"componentType":5126,
			"count":1071,
			"type":"VEC2"
		},
		{
			"bufferView":3,
			"componentType":5123,
			"count":2142,
			"type":"SCALAR"
		},
		{
			"bufferView":4,
			"componentType":5126,
			"count":5378,
			"max":[
				0.7328411340713501,
				2.168680191040039,
				0.20790237188339233
			],
			"min":[
				-0.10825320333242416,
				0,
				-56.20790100097656
			],
			"type":"VEC3"
		},
		{
			"bufferView":5,
			"componentType":5126,
			"count":5378,
			"type":"VEC3"
		},
		{
			"bufferView":6,
			"componentType":5126,
			"count":5378,
			"type":"VEC2"
		},
		{
			"bufferView":7,
			"componentType":5123,
			"count":8100,
			"type":"SCALAR"
		},
		{
			"bufferView":8,
			"componentType":5126,
			"count":586,
			"max":[
				0.15533234179019928,
				2.168484926223755,
				0.14812129735946655
			],
			"min":[
				-0.12033297121524811,
				0,
				-0.14812126755714417
			],
			"type":"VEC3"
		},
		{
			"bufferView":9,
			"componentType":5126,
			"count":586,
			"type":"VEC3"
		},
		{
			"bufferView":10,
			"componentType":5126,
			"count":586,
			"type":"VEC2"
		},
		{
			"bufferView":11,
			"componentType":5123,
			"count":936,
			"type":"SCALAR"
		},
		{
			"bufferView":12,
			"componentType":5126,
			"count":6,
			"max":[
				0.12033233791589737,
				2.101959228515625,
				0.055892396718263626
			],
			"min":[
				0.1203322783112526,
				1.9704481363296509,
				-0.055892568081617355
			],
			"type":"VEC3"
		},
		{
			"bufferView":13,
			"componentType":5126,
			"count":6,
			"type":"VEC3"
		},
		{
			"bufferView":14,
			"componentType":5126,
			"count":6,
			"type":"VEC2"
		},
		{
			"bufferView":15,
			"componentType":5123,
			"count":12,
			"type":"SCALAR"
		},
		{
			"bufferView":16,
			"componentType":5126,
			"count":6,
			"max":[
				0.12033233791589737,
				1.937570333480835,
				0.055892426520586014
			],
			"min":[
				0.1203322783112526,
				1.8060591220855713,
				-0.055892545729875565
			],
			"type":"VEC3"
		},
		{
			"bufferView":17,
			"componentType":5126,
			"count":6,
			"type":"VEC3"
		},
		{
			"bufferView":18,
			"componentType":5126,
			"count":6,
			"type":"VEC2"
		},
		{
			"bufferView":19,
			"componentType":5123,
			"count":12,
			"type":"SCALAR"
		},
		{
			"bufferView":20,
			"componentType":5126,
			"count":6,
			"max":[
				0.12033233791589737,
				1.7731812000274658,
				0.05589241907000542
			],
			"min":[
				0.1203322783112526,
				1.6416699886322021,
				-0.055892545729875565
			],
			"type":"VEC3"
		},
		{
			"bufferView":21,
			"componentType":5126,
			"count":6,
			"type":"VEC3"
		},
		{
			"bufferView":22,
			"componentType":5126,
			"count":6,
			"type":"VEC2"
		},
		{
			"bufferView":23,
			"componentType":5123,
			"count":12,
			"type":"SCALAR"
		},
		{
			"bufferView":24,
			"componentType":5126,
			"count":24,
			"max":[
				0.25,
				0.25,
				0.4401014745235443
			],
			"min":[
				-0.25,
				-0.25,
				-0.4401021897792816
			],
			"type":"VEC3"
		},
		{
			"bufferView":25,
			"componentType":5126,
			"count":24,
			"type":"VEC3"
		},
		{
			"bufferView":26,
			"componentType":5126,
			"count":24,
			"type":"VEC2"
		},
		{
			"bufferView":27,
			"componentType":5123,
			"count":36,
			"type":"SCALAR"
		},
		{
			"bufferView":28,
			"componentType":5126,
			"count":4,
			"max":[
				0.5,
				0,
				0.5
			],
			"min":[
				-0.5,
				0,
				-0.5
			],
			"type":"VEC3"
		},
		{
			"bufferView":29,
			"componentType":5126,
			"count":4,
			"type":"VEC3"
		},
		{
			"bufferView":30,
			"componentType":5126,
			"count":4,
			"type":"VEC2"
		},
		{
			"bufferView":31,
			"componentType":5123,
			"count":6,
			"type":"SCALAR"
		},
		{
			"bufferView":32,
			"componentType":5126,
			"count":4,
			"max":[
				0.5,
				0,
				0.5
			],
			"min":[
				-0.5,
				0,
				-0.5
			],
			"type":"VEC3"
		},
		{
			"bufferView":33,
			"componentType":5126,
			"count":4,
			"type":"VEC3"
		},
		{
			"bufferView":34,
			"componentType":5126,
			"count":4,
			"type":"VEC2"
		},
		{
			"bufferView":35,
			"componentType":5126,
			"count":12837,
			"max":[
				0.2412828505039215,
				1.669059157371521,
				0.18184441328048706
			],
			"min":[
				-0.23113009333610535,
				0.44817638397216797,
				-0.07803016901016235
			],
			"type":"VEC3"
		},
		{
			"bufferView":36,
			"componentType":5126,
			"count":12837,
			"type":"VEC3"
		},
		{
			"bufferView":37,
			"componentType":5126,
			"count":12837,
			"type":"VEC2"
		},
		{
			"bufferView":38,
			"componentType":5123,
			"count":13170,
			"type":"SCALAR"
		},
		{
			"bufferView":39,
			"componentType":5126,
			"count":2058,
			"max":[
				0.07500000298023224,
				0.055000003427267075,
				0.07500000298023224
			],
			"min":[
				-0.07500000298023224,
				-0.07500000298023224,
				-49.92499923706055
			],
			"type":"VEC3"
		},
		{
			"bufferView":40,
			"componentType":5126,
			"count":2058,
			"type":"VEC3"
		},
		{
			"bufferView":41,
			"componentType":5126,
			"count":2058,
			"type":"VEC2"
		},
		{
			"bufferView":42,
			"componentType":5123,
			"count":3000,
			"type":"SCALAR"
		},
		{
			"bufferView":43,
			"componentType":5126,
			"count":200,
			"max":[
				0.5,
				0,
				0.5
			],
			"min":[
				-0.5,
				0,
				-49.5
			],
			"type":"VEC3"
		},
		{
			"bufferView":44,
			"componentType":5126,
			"count":200,
			"type":"VEC3"
		},
		{
			"bufferView":45,
			"componentType":5126,
			"count":200,
			"type":"VEC2"
		},
		{
			"bufferView":46,
			"componentType":5123,
			"count":300,
			"type":"SCALAR"
		},
		{
			"bufferView":47,
			"componentType":5126,
			"count":200,
			"max":[
				1.5,
				0,
				0.5
			],
			"min":[
				-0.5,
				0,
				-49.5
			],
			"type":"VEC3"
		},
		{
			"bufferView":48,
			"componentType":5126,
			"count":200,
			"type":"VEC3"
		},
		{
			"bufferView":49,
			"componentType":5126,
			"count":200,
			"type":"VEC2"
		},
		{
			"bufferView":50,
			"componentType":5126,
			"count":64,
			"max":[
				0.49834898114204407,
				0.6330345869064331,
				1.0092259645462036
			],
			"min":[
				-0.49834904074668884,
				-1.1092808246612549,
				-0.9829667210578918
			],
			"type":"VEC3"
		},
		{
			"bufferView":51,
			"componentType":5126,
			"count":64,
			"type":"VEC3"
		},
		{
			"bufferView":52,
			"componentType":5126,
			"count":64,
			"type":"VEC2"
		},
		{
			"bufferView":53,
			"componentType":5123,
			"count":132,
			"type":"SCALAR"
		}
	],
	"bufferViews":[
		{
			"buffer":0,
			"byteLength":12852,
			"byteOffset":0,
			"target":34962
		},
		{
			"buffer":0,
			"byteLength":12852,
			"byteOffset":12852,
			"target":34962
		},
		{
			"buffer":0,
			"byteLength":8568,
			"byteOffset":25704,
			"target":34962
		},
		{
			"buffer":0,
			"byteLength":4284,
			"byteOffset":34272,
			"target":34963
		},
		{
			"buffer":0,
			"byteLength":64536,
			"byteOffset":38556,
			"target":34962
		},
		{
			"buffer":0,
			"byteLength":64536,
			"byteOffset":103092,
			"target":34962
		},
		{
			"buffer":0,
			"byteLength":43024,
			"byteOffset":167628,
			"target":34962
		},
		{
			"buffer":0,
			"byteLength":16200,
			"byteOffset":210652,
			"target":34963
		},
		{
			"buffer":0,
			"byteLength":7032,
			"byteOffset":226852,
			"target":34962
		},
		{
			"buffer":0,
			"byteLength":7032,
			"byteOffset":233884,
			"target":34962
		},
		{
			"buffer":0,
			"byteLength":4688,
			"byteOffset":240916,
			"target":34962
		},
		{
			"buffer":0,
			"byteLength":1872,
			"byteOffset":245604,
			"target":34963
		},
		{
			"buffer":0,
			"byteLength":72,
			"byteOffset":247476,
			"target":34962
		},
		{
			"buffer":0,
			"byteLength":72,
			"byteOffset":247548,
			"target":34962
		},
		{
			"buffer":0,
			"byteLength":48,
			"byteOffset":247620,
			"target":34962
		},
		{
			"buffer":0,
			"byteLength":24,
			"byteOffset":247668,
			"target":34963
		},
		{
			"buffer":0,
			"byteLength":72,
			"byteOffset":247692,
			"target":34962
		},
		{
			"buffer":0,
			"byteLength":72,
			"byteOffset":247764,
			"target":34962
		},
		{
			"buffer":0,
			"byteLength":48,
			"byteOffset":247836,
			"target":34962
		},
		{
			"buffer":0,
			"byteLength":24,
			"byteOffset":247884,
			"target":34963
		},
		{
			"buffer":0,
			"byteLength":72,
			"byteOffset":247908,
			"target":34962
		},
		{
			"buffer":0,
			"byteLength":72,
			"byteOffset":247980,
			"target":34962
		},
		{
			"buffer":0,
			"byteLength":48,
			"byteOffset":248052,
			"target":34962
		},
		{
			"buffer":0,
			"byteLength":24,
			"byteOffset":248100,
			"target":34963
		},
		{
			"buffer":0,
			"byteLength":288,
			"byteOffset":248124,
			"target":34962
		},
		{
			"buffer":0,
			"byteLength":288,
			"byteOffset":248412,
			"target":34962
		},
		{
			"buffer":0,
			"byteLength":192,
			"byteOffset":248700,
			"target":34962
		},
		{
			"buffer":0,
			"byteLength":72,
			"byteOffset":248892,
			"target":34963
		},
		{
			"buffer":0,
			"byteLength":48,
			"byteOffset":248964,
			"target":34962
		},
		{
			"buffer":0,
			"byteLength":48,
			"byteOffset":249012,
			"target":34962
		},
		{
			"buffer":0,
			"byteLength":32,
			"byteOffset":249060,
			"target":34962
		},
		{
			"buffer":0,
			"byteLength":12,
			"byteOffset":249092,
			"target":34963
		},
		{
			"buffer":0,
			"byteLength":48,
			"byteOffset":249104,
			"target":34962
		},
		{
			"buffer":0,
			"byteLength":48,
			"byteOffset":249152,
			"target":34962
		},
		{
			"buffer":0,
			"byteLength":32,
			"byteOffset":249200,
			"target":34962
		},
		{
			"buffer":0,
			"byteLength":154044,
			"byteOffset":249232,
			"target":34962
		},
		{
			"buffer":0,
			"byteLength":154044,
			"byteOffset":403276,
			"target":34962
		},
		{
			"buffer":0,
			"byteLength":102696,
			"byteOffset":557320,
			"target":34962
		},
		{
			"buffer":0,
			"byteLength":26340,
			"byteOffset":660016,
			"target":34963
		},
		{
			"buffer":0,
			"byteLength":24696,
			"byteOffset":686356,
			"target":34962
		},
		{
			"buffer":0,
			"byteLength":24696,
			"byteOffset":711052,
			"target":34962
		},
		{
			"buffer":0,
			"byteLength":16464,
			"byteOffset":735748,
			"target":34962
		},
		{
			"buffer":0,
			"byteLength":6000,
			"byteOffset":752212,
			"target":34963
		},
		{
			"buffer":0,
			"byteLength":2400,
			"byteOffset":758212,
			"target":34962
		},
		{
			"buffer":0,
			"byteLength":2400,
			"byteOffset":760612,
			"target":34962
		},
		{
			"buffer":0,
			"byteLength":1600,
			"byteOffset":763012,
			"target":34962
		},
		{
			"buffer":0,
			"byteLength":600,
			"byteOffset":764612,
			"target":34963
		},
		{
			"buffer":0,
			"byteLength":2400,
			"byteOffset":765212,
			"target":34962
		},
		{
			"buffer":0,
			"byteLength":2400,
			"byteOffset":767612,
			"target":34962
		},
		{
			"buffer":0,
			"byteLength":1600,
			"byteOffset":770012,
			"target":34962
		},
		{
			"buffer":0,
			"byteLength":768,
			"byteOffset":771612,
			"target":34962
		},
		{
			"buffer":0,
			"byteLength":768,
			"byteOffset":772380,
			"target":34962
		},
		{
			"buffer":0,
			"byteLength":512,
			"byteOffset":773148,
			"target":34962
		},
		{
			"buffer":0,
			"byteLength":264,
			"byteOffset":773660,
			"target":34963
		}
	],
	"buffers":[
		{
			"byteLength":773924,
			"uri":"environmentRIFTtriangles.bin"
		}
	]
}
